<?xml version="1.0" encoding="utf-8"?>
<!-- Generator: Adobe Illustrator 19.0.0, SVG Export Plug-In . SVG Version: 6.00 Build 0)  -->
<svg version="1.1" id="Layer_1" xmlns="http://www.w3.org/2000/svg" xmlns:xlink="http://www.w3.org/1999/xlink" x="0px" y="0px"
	 viewBox="0 0 100 100" style="enable-background:new 0 0 100 100;" xml:space="preserve">
<style type="text/css">
	.st0{fill:none;}
</style>
<g id="XMLID_41_">
	<path id="XMLID_42_" class="st0" d="M25.9,12.8L38,30h0l1.1,1.7c3.3-2,7-2.8,10.8-2.8c2.6,0,5.1,0.5,7.5,1.4l0.8-1.7l0-0.1l0,0
		c0,0,0,0,0,0l9-19.2L68,7.9c-5.7-2.4-11.7-3.7-18-3.7c-9,0-17.6,2.5-25,7.4L25.9,12.8L25.9,12.8z"/>
	<path id="XMLID_43_" class="st0" d="M33.6,41.2c0.1,0.4,0.1,0.8,0,1.1c-1.1,2.4-1.7,5-1.7,7.7c0,3.8,1.1,7.3,3.3,10.4
		c0.2,0.3,0.3,0.6,0.3,1c-0.1,0.4-0.3,0.6-0.6,0.9L32,64h0l0,0v0.4c2,2.4,4.3,4.6,6.9,5.6h0c0,0,0.1,0,0.1,0l1.3-2.9
		c0.2-0.4,0.5-0.6,0.8-0.8c0.4-0.1,0.8-0.1,1.2,0c2.4,1.1,5,1.7,7.6,1.7c3.8,0,7.3-1.1,10.4-3.3c0.3-0.2,0.7-0.3,1.1-0.3
		c0.4,0.1,0.6,0.3,0.9,0.6L64,68v0l0,0h0.4c2.4-2,4.6-4.3,5.6-6.9v0c0,0,0-0.1,0-0.1l-2.9-1.3c-0.4-0.2-0.6-0.5-0.8-0.8
		c-0.1-0.4-0.1-0.8,0-1.2c1.1-2.4,1.7-5,1.7-7.6c0-3.8-1.1-7.3-3.3-10.4c-0.2-0.3-0.3-0.7-0.3-1.1c0.1-0.4,0.3-0.6,0.6-0.9L68,36h0
		l0,0v-0.4c-2-2.4-4.3-4.6-6.9-5.6h0c0,0,0,0,0,0c0,0,0,0,0,0l0,0l-1.3,2.9c-0.2,0.4-0.5,0.6-0.9,0.8c-0.4,0.1-0.8,0.1-1.1-0.1
		c-2.4-1.1-5-1.7-7.7-1.7c-3.8,0-7.3,1.1-10.4,3.3c-0.3,0.2-0.5,0.3-0.9,0.3c-0.1,0-0.2,0-0.3,0c-0.4-0.1-0.7-0.3-1-0.6L35.6,32
		c-2.4,1.9-4.3,4.2-5.8,6.9l3.1,1.4C33.2,40.5,33.5,40.8,33.6,41.2z"/>
	<path id="XMLID_44_" class="st0" d="M88.4,25l-1.1,0.8l-0.1,0.1L70,38v0l-1.7,1.1c2,3.3,2.8,7,2.8,10.9c0,2.6-0.5,5.1-1.4,7.5
		l1.7,0.8l0.1,0l19.3,9l1.3,0.6c2.4-5.7,3.7-11.7,3.7-18C95.8,41,93.3,32.4,88.4,25z"/>
	<path id="XMLID_46_" class="st0" d="M74.1,87.2L62,70h0l-1.1-1.7c-3.3,2-7,2.9-10.8,2.9c-2.6,0-5.1-0.5-7.5-1.4l-0.8,1.7l0,0.1
		l-9,19.3L32,92.1c5.7,2.4,11.7,3.7,18,3.7c9,0,17.6-2.5,25-7.4L74.1,87.2L74.1,87.2z"/>
	<path id="XMLID_47_" class="st0" d="M11.6,75l1.1-0.8L30,62v0l1.7-1.1c-2-3.3-2.8-7-2.8-10.8c0-2.6,0.5-5.1,1.4-7.5l-1.7-0.7
		L9.2,33h0l-1.3-0.8C5.5,37.9,4.2,43.7,4.2,50C4.2,59,6.8,67.6,11.6,75z"/>
	<path id="XMLID_64_" d="M89.9,22c-0.5-0.7-1.4-0.8-2.1-0.4l-2.3,1.8c0,0-0.1-0.1-0.1-0.1c-4-5.4-9.3-9.8-15.3-12.9l1.3-2.7
		c0.3-0.8,0-1.6-0.7-2c-6.5-3-13.4-4.6-20.6-4.6c-10.1,0-19.8,3-28,8.8c-0.7,0.5-0.8,1.4-0.4,2.1l1.7,2.4c-5.4,4-9.8,9.3-12.9,15.3
		l-2.7-1.3c-0.8-0.3-1.6,0-2,0.7c-3,6.5-4.6,13.4-4.6,20.6c0,10.1,3,19.8,8.8,28c0.3,0.4,0.8,0.6,1.2,0.6c0.3,0,0.6-0.1,0.9-0.3
		l2.3-1.8c0,0,0.1,0.1,0.1,0.1c4,5.4,9.3,9.8,15.3,12.9c0,0,0,0,0.1,0l-1.3,2.7c-0.4,0.8,0,1.6,0.7,2c6.5,3,13.4,4.6,20.6,4.6
		c10.1,0,19.8-3,28-8.8c0.7-0.5,0.8-1.4,0.4-2.1l-1.8-2.3c0,0,0.1-0.1,0.1-0.1c5.4-4,9.8-9.3,12.9-15.4l2.7,1.3
		c0.2,0.1,0.4,0.1,0.6,0.1c0.6,0,1.1-0.3,1.4-0.9c3-6.5,4.6-13.4,4.6-20.6C98.8,39.9,95.7,30.3,89.9,22z M90.8,67.4l-19.3-9l-0.1,0
		l-1.7-0.8c0.9-2.4,1.4-4.9,1.4-7.5c0-3.9-0.9-7.6-2.8-10.9L70,38v0l17.2-12.2l0.1-0.1l1.1-0.8c4.9,7.4,7.4,16,7.4,25
		c0,6.3-1.3,12.3-3.7,18L90.8,67.4z M50,4.2c6.3,0,12.3,1.3,18,3.7l-0.6,1.3l-9,19.2c0,0,0,0,0,0l0,0l0,0.1l-0.8,1.7
		c-2.4-0.9-4.9-1.4-7.5-1.4c-3.9,0-7.6,0.9-10.8,2.8L38,30h0L25.9,12.8l-0.1-0.1L25,11.6C32.4,6.8,41,4.2,50,4.2z M35.6,32l1.9,2.8
		c0.2,0.3,0.6,0.5,1,0.6c0.1,0,0.2,0,0.3,0c0.3,0,0.6-0.1,0.9-0.3c3-2.1,6.6-3.3,10.4-3.3c2.7,0,5.3,0.6,7.7,1.7
		c0.4,0.2,0.8,0.2,1.1,0.1c0.4-0.1,0.7-0.4,0.9-0.8L61,30l0,0c0,0,0,0,0,0c0,0,0,0,0,0h0c2.7,1,4.9,3.2,6.9,5.6V36l0,0h0l-2.8,1.7
		c-0.3,0.2-0.6,0.5-0.6,0.9c-0.1,0.4,0,0.8,0.3,1.1c2.1,3,3.3,6.6,3.3,10.4c0,2.7-0.6,5.2-1.7,7.6c-0.2,0.4-0.2,0.8,0,1.2
		c0.1,0.4,0.4,0.7,0.8,0.8L70,61c0,0,0,0.1,0,0.1v0c-1,2.7-3.2,4.9-5.6,6.9H64l0,0v0l-1.7-2.8c-0.2-0.3-0.5-0.5-0.9-0.6
		c-0.4-0.1-0.8,0-1.1,0.3c-3.1,2.2-6.6,3.3-10.4,3.3c-2.7,0-5.2-0.6-7.6-1.7c-0.4-0.2-0.8-0.2-1.2,0c-0.4,0.1-0.7,0.4-0.8,0.8L39,70
		c0,0-0.1,0-0.1,0h0c-2.7-1-4.9-3.2-6.9-5.6V64l0,0h0l2.8-1.7c0.3-0.2,0.6-0.5,0.6-0.9c0.1-0.4,0-0.7-0.3-1
		c-2.1-3.1-3.3-6.6-3.3-10.4c0-2.7,0.6-5.3,1.7-7.7c0.2-0.4,0.2-0.8,0-1.1c-0.1-0.4-0.4-0.7-0.8-0.9l-3.1-1.4
		C31.3,36.3,33.2,33.9,35.6,32z M50,95.8c-6.3,0-12.3-1.3-18-3.7l0.6-1.3l9-19.3l0-0.1l0.8-1.7c2.4,0.9,4.9,1.4,7.5,1.4
		c3.9,0,7.6-0.9,10.8-2.9L62,70h0l12.2,17.2l0.1,0.1l0.8,1.1C67.6,93.3,59,95.8,50,95.8z M9.2,33L9.2,33l19.3,8.8l1.7,0.7
		c-0.9,2.4-1.4,4.9-1.4,7.5c0,3.9,0.9,7.6,2.8,10.8L30,62v0L12.7,74.2L11.6,75c-4.9-7.4-7.4-16-7.4-25c0-6.3,1.3-12.1,3.7-17.8
		L9.2,33z"/>
</g>
</svg>
