<?xml version="1.0" encoding="utf-8"?>
<!-- Generator: Adobe Illustrator 19.0.0, SVG Export Plug-In . SVG Version: 6.00 Build 0)  -->
<svg version="1.1" id="Layer_1" xmlns="http://www.w3.org/2000/svg" xmlns:xlink="http://www.w3.org/1999/xlink" x="0px" y="0px"
	 viewBox="0 0 100 100" style="enable-background:new 0 0 100 100;" xml:space="preserve">
<path id="XMLID_49_" d="M85.6,20.1c5.2,0,9.4-4.2,9.4-9.4c0-5.2-4.2-9.4-9.4-9.4s-9.4,4.2-9.4,9.4c0,2,0.7,3.9,1.8,5.5L63.8,33.9
	c-2.8-1.6-6-2.6-9.4-2.6c-8.8,0-16.1,6.1-18.1,14.3l-12.7-1.2c-0.8-4.4-4.7-7.6-9.3-7.6c-5.2,0-9.4,4.2-9.4,9.4
	c0,5.2,4.2,9.4,9.4,9.4c4,0,7.4-2.5,8.8-6l12.8,1.2c0.5,9.8,8.6,17.7,18.6,17.7c3,0,5.8-0.7,8.3-2l12.4,17.8
	c-1.3,1.6-2.1,3.7-2.1,5.9c0,5.2,4.2,9.4,9.4,9.4s9.4-4.2,9.4-9.4c0-5.2-4.2-9.4-9.4-9.4c-1.1,0-2.1,0.2-3,0.5L67.1,63.6
	c3.7-3.4,6-8.2,6-13.6c0-5-2-9.5-5.1-12.8l14.1-17.8C83.2,19.9,84.4,20.1,85.6,20.1z"/>
</svg>
