<?xml version="1.0" encoding="utf-8"?>
<!-- Generator: Adobe Illustrator 19.0.0, SVG Export Plug-In . SVG Version: 6.00 Build 0)  -->
<svg version="1.1" id="Layer_1" xmlns="http://www.w3.org/2000/svg" xmlns:xlink="http://www.w3.org/1999/xlink" x="0px" y="0px"
	 viewBox="0 0 100 100" style="enable-background:new 0 0 100 100;" xml:space="preserve">
<g id="XMLID_40_">
	<path id="XMLID_50_" d="M96.5,77L69.9,55.7C72.5,50.7,74,45,74,39C74,19.1,57.9,3,38,3S2,19.1,2,39s16.1,36,36,36
		c6.4,0,12.3-1.7,17.5-4.5l22.4,25.3c2.5,3,7,3.2,9.7,0.4l9.4-9.4C99.7,84,99.5,79.5,96.5,77z M11.8,39c0-14.5,11.8-26.3,26.3-26.3
		S64.3,24.5,64.3,39c0,14.5-11.8,26.3-26.3,26.3S11.8,53.5,11.8,39z"/>
	<path id="XMLID_51_" d="M36.2,33.5c0-0.9,0.7-1.5,1.8-1.5c1.7,0,2.4,1.2,2.9,2.3l4.7-2.1c-0.5-1.5-1.6-4.4-5.6-5.2V25h-3v1.9
		c-4,0.5-6.2,3.1-6.2,6.7c0,7.4,9.4,7.1,9.4,10.2c0,1-0.7,1.6-2.1,1.6c-1.6,0-2.8-1.2-3.5-2.6l-4.5,2.3c0.5,1.6,1.9,4.9,6.9,5.4V53
		h3v-2.6c4-0.8,5.9-3.5,5.9-7.1C45.9,36.3,36.2,36.6,36.2,33.5z"/>
</g>
</svg>
