<?xml version="1.0" encoding="utf-8"?>
<!-- Generator: Adobe Illustrator 19.0.0, SVG Export Plug-In . SVG Version: 6.00 Build 0)  -->
<svg version="1.1" id="Layer_1" xmlns="http://www.w3.org/2000/svg" xmlns:xlink="http://www.w3.org/1999/xlink" x="0px" y="0px"
	 viewBox="0 0 100 100" style="enable-background:new 0 0 100 100;" xml:space="preserve">
<g id="XMLID_1_">
	<g id="XMLID_52_">
		<path id="XMLID_47_" d="M83.8,16.3L58.3,41.8c-1.7,1.7-4.5,0.9-5.1-1.4L43.8,5.5c-0.5-1.7,0.6-3.4,2.3-3.8C48.9,1.3,51.7,1,54.5,1
			c11.1,0,21.3,4.1,29.1,10.8C85,13,85,15,83.8,16.3z"/>
	</g>
	<g id="XMLID_11_">
		<path id="XMLID_45_" d="M40,53.3L9.6,68.5C8,69.3,6.1,68.6,5.4,67C3.3,61.8,2.1,56,2.1,50c0-3.8,0.5-7.5,1.4-11
			c0.4-1.7,2.2-2.7,3.9-2.2l32.3,10.8C42.2,48.6,42.5,52.1,40,53.3z"/>
	</g>
	<g id="XMLID_12_">
		<path id="XMLID_42_" d="M39.8,7.8l0,3L49,45.4c0,0,0,0,0,0c0,0,0,0,0,0L15.1,34.1c0,0,0,0,0-0.1c4.5-10.8,13.5-19.3,24.6-23.1
			c0,0,0,0,0,0L39.8,7.8 M39.8,7.8c-0.3,0-0.7,0.1-1,0.2c-11.9,4.2-21.5,13.2-26.4,24.8c-0.7,1.6,0.1,3.5,1.8,4.1L48,48.2
			c0.3,0.1,0.7,0.2,1,0.2c1.9,0,3.5-1.8,2.9-3.8l-9.2-34.5C42.3,8.7,41.1,7.8,39.8,7.8L39.8,7.8z"/>
	</g>
	<g id="XMLID_13_">
		<path id="XMLID_25_" d="M51.5,51.3l0,3l10.9,36.2c0,0,0,0-0.1,0.1c-2.9,0.6-5.9,1-8.9,1c-14.6,0-28.3-7.8-35.7-20.3c0,0,0,0,0,0
			l33.8-16.8c0,0,0,0,0,0L51.5,51.3 M51.5,51.3c-0.5,0-0.9,0.1-1.3,0.3L16.4,68.5c-1.6,0.8-2.2,2.7-1.3,4.2
			c7.8,13.1,22,21.8,38.3,21.8c3.3,0,6.5-0.4,9.6-1c1.7-0.4,2.8-2.1,2.3-3.8L54.4,53.5C54,52.2,52.8,51.3,51.5,51.3L51.5,51.3z"/>
	</g>
	<g id="XMLID_54_">
		<path id="XMLID_21_" d="M84.8,22.9c6.5,7.5,10.1,17.2,10.1,27.1c0,9.5-3.3,18.8-9.3,26.2l0.7,2.9l-0.8-2.9L57.7,50L84.8,22.9
			C84.8,22.9,84.8,22.9,84.8,22.9 M84.8,19.9c-0.8,0-1.6,0.3-2.2,0.9l-27,27c-1.2,1.2-1.2,3.2,0.1,4.4l27.8,26.2
			c0.6,0.6,1.3,0.8,2.1,0.8c0.9,0,1.7-0.4,2.3-1.1c6.2-7.7,10-17.5,10-28.1c0-11.1-4.1-21.3-10.8-29.1
			C86.5,20.2,85.6,19.9,84.8,19.9L84.8,19.9z"/>
	</g>
	<g id="XMLID_50_">
		<path id="XMLID_24_" d="M86.9,88.5c-4.1,3.8-9,6.8-14.3,8.8c-1.6,0.6-3.4-0.3-3.9-2l-8.6-28.8c-0.9-3,2.7-5.2,5-3.1l21.9,20.6
			C88.2,85.3,88.2,87.3,86.9,88.5z"/>
	</g>
</g>
</svg>
