<?xml version="1.0" encoding="utf-8"?>
<!-- Generator: Adobe Illustrator 19.0.0, SVG Export Plug-In . SVG Version: 6.00 Build 0)  -->
<svg version="1.1" id="Layer_1" xmlns="http://www.w3.org/2000/svg" xmlns:xlink="http://www.w3.org/1999/xlink" x="0px" y="0px"
	 viewBox="0 0 100 100" style="enable-background:new 0 0 100 100;" xml:space="preserve">
<g id="XMLID_1_">
	<path d="M94.4,11.8c0.1,0,0.2,0.1,0.2,0.2v73.9c0,0.1-0.1,0.2-0.2,0.2H5.6c-0.1,0-0.2-0.1-0.2-0.2V11.9c0-0.1,0.1-0.2,0.2-0.2H94.4
		 M94.4,8.8H5.6c-1.8,0-3.2,1.4-3.2,3.2v73.9c0,1.8,1.4,3.2,3.2,3.2h88.9c1.8,0,3.2-1.4,3.2-3.2V11.9C97.6,10.2,96.2,8.8,94.4,8.8
		L94.4,8.8z"/>
</g>
<g id="XMLID_3_">
	<rect id="XMLID_10_" x="5" y="24" width="91" height="3"/>
</g>
<g id="XMLID_2_">
	<path d="M86.8,39.8h-75c-1.4,0-2.5-1.1-2.5-2.5v-2.8c0-1.4,1.1-2.5,2.5-2.5h75c1.4,0,2.5,1.1,2.5,2.5v2.8
		C89.3,38.6,88.1,39.8,86.8,39.8z"/>
</g>
<g id="XMLID_5_">
	<path d="M55,70.3H11.8c-1.4,0-2.5-1.1-2.5-2.5V50c0-1.4,1.1-2.5,2.5-2.5H55c1.4,0,2.5,1.1,2.5,2.5v17.8
		C57.5,69.1,56.4,70.3,55,70.3z"/>
</g>
<g id="XMLID_4_">
	<circle cx="12" cy="18" r="2.8"/>
</g>
<g id="XMLID_7_">
	<circle cx="19" cy="18" r="2.8"/>
</g>
<g id="XMLID_8_">
	<circle cx="26" cy="18" r="2.8"/>
</g>
</svg>
