<?xml version="1.0" encoding="utf-8"?>
<!-- Generator: Adobe Illustrator 19.0.0, SVG Export Plug-In . SVG Version: 6.00 Build 0)  -->
<svg version="1.1" id="Layer_1" xmlns="http://www.w3.org/2000/svg" xmlns:xlink="http://www.w3.org/1999/xlink" x="0px" y="0px"
	 viewBox="0 0 100 100" style="enable-background:new 0 0 100 100;" xml:space="preserve">
<path id="XMLID_3_" d="M40.4,38.9l13,51.6c0.4,1.7,2.4,2.3,3.7,1.2l7-6c1-0.8,2.4-0.7,3.3,0.3L76,96.1c0.8,1,2.3,1.1,3.3,0.3
	l14.8-12.5c1-0.8,1.1-2.3,0.3-3.3l-8.7-10.2c-0.8-1-0.7-2.4,0.3-3.3l6.8-5.8c1.3-1.1,1-3.2-0.6-3.9L43.6,36.2
	C41.8,35.4,39.9,37,40.4,38.9z"/>
<g id="XMLID_1_">
	<path id="XMLID_4_" d="M46.3,98.1c-0.1,0-0.1,0-0.2,0C21.2,96.1,1.8,75,1.8,50C1.8,23.4,23.4,1.8,50,1.8c24,0,44.6,17.9,47.8,41.7
		c0.2,1.4-0.8,2.6-2.1,2.8c-1.4,0.2-2.6-0.8-2.8-2.1C90,22.8,71.5,6.8,50,6.8C26.2,6.8,6.8,26.2,6.8,50c0,22.4,17.4,41.3,39.7,43.1
		c1.4,0.1,2.4,1.3,2.3,2.7C48.6,97.1,47.6,98.1,46.3,98.1z"/>
</g>
</svg>
