<?xml version="1.0" encoding="utf-8"?>
<!-- Generator: Adobe Illustrator 19.0.0, SVG Export Plug-In . SVG Version: 6.00 Build 0)  -->
<svg version="1.1" id="Layer_1" xmlns="http://www.w3.org/2000/svg" xmlns:xlink="http://www.w3.org/1999/xlink" x="0px" y="0px"
	 viewBox="0 0 100 100" style="enable-background:new 0 0 100 100;" xml:space="preserve">
<style type="text/css">
	.st0{fill:#222;}
</style>
<g id="XMLID_1_">
	<path id="XMLID_26_" class="st0" d="M50,1.5C23.3,1.5,1.5,23.3,1.5,50c0,26.7,21.8,48.5,48.5,48.5S98.5,76.7,98.5,50
		C98.5,23.3,76.7,1.5,50,1.5z M50,8.6c12.5,0,23.7,5.4,31.3,14.2L73.9,30H26.1l-7.4-7.2C26.3,14,37.5,8.6,50,8.6z M66.9,37L50,53.9
		L33.1,37H66.9z M8.6,50.2c0-7.8,2.2-15,5.9-21.3l27,27.1H8.9C8.7,54,8.6,52.1,8.6,50.2z M50,91.7C37.3,91.7,26,86,18.4,77h63.2
		C74,86,62.7,91.7,50,91.7z M86.4,70H13.6c-1.2-2-2.2-5-3-7h78.9C88.7,65,87.7,68,86.4,70z M58.5,56l27-27.2
		c3.8,6.2,5.9,13.6,5.9,21.4c0,1.9-0.1,3.7-0.4,5.7H58.5z"/>
</g>
</svg>
